# xmcd
#
# Track frame offsets:
#	150
#	16810
#	31548
#	44754
#	57624
#	72193
#	84619
#	99106
#	111557
#
# Disc length: 1663 seconds
# Revision: 0
# Processed by: cddbd v1.5.2PL0 Copyright (c) Steve Scherf et al.
# Submitted via: dBpowerAMP V12.0
#
DISCID=71067d09
DTITLE=Alain Morisod - Edelweiss
DYEAR=1900
DGENRE=Country
TTITLE0=Edelweiss
TTITLE1=Music box lovers
TTITLE2=Gruyeria
TTITLE3=Jodel echo
TTITLE4=Heidi's dream
TTITLE5=Mattaerhorn
TTITLE6=Le vieux chalet
TTITLE7=Bis doris diheim
TTITLE8=Sur les rives de leman
EXTD=
EXTT0=
EXTT1=
EXTT2=
EXTT3=
EXTT4=
EXTT5=
EXTT6=
EXTT7=
EXTT8=
PLAYORDER=
